<?xml version="1.0" encoding="UTF-8" standalone="no"?>
<!DOCTYPE svg PUBLIC "-//W3C//DTD SVG 1.1//EN"
 "http://www.w3.org/Graphics/SVG/1.1/DTD/svg11.dtd">
<!-- Generated by graphviz version 2.40.1 (20161225.0304)
 -->
<!-- Title: dependencies Pages: 1 -->
<svg width="1283pt" height="284pt"
 viewBox="0.00 0.00 1283.00 284.00" xmlns="http://www.w3.org/2000/svg" xmlns:xlink="http://www.w3.org/1999/xlink">
<g id="graph0" class="graph" transform="scale(1 1) rotate(0) translate(4 280)">
<title>dependencies</title>
<polygon fill="#ffffff" stroke="transparent" points="-4,4 -4,-280 1279,-280 1279,4 -4,4"/>
<text text-anchor="start" x="616.5091" y="-42.4" font-family="sans-serif" font-weight="bold" font-size="14.00" fill="#000000">Legend</text>
<polygon fill="#ffffb3" stroke="transparent" points="403.5,-10 403.5,-30 423.5,-30 423.5,-10 403.5,-10"/>
<text text-anchor="start" x="427.129" y="-15.4" font-family="sans-serif" font-size="14.00" fill="#000000"> &#160;Declarations</text>
<polygon fill="#8dd3c7" stroke="transparent" points="516.5,-10 516.5,-30 536.5,-30 536.5,-10 516.5,-10"/>
<text text-anchor="start" x="540.2251" y="-15.4" font-family="sans-serif" font-size="14.00" fill="#000000"> &#160;Module</text>
<polygon fill="#80b1d3" stroke="transparent" points="602.5,-10 602.5,-30 622.5,-30 622.5,-10 602.5,-10"/>
<text text-anchor="start" x="626.2812" y="-15.4" font-family="sans-serif" font-size="14.00" fill="#000000"> &#160;Bootstrap</text>
<polygon fill="#fdb462" stroke="transparent" points="699.5,-10 699.5,-30 719.5,-30 719.5,-10 699.5,-10"/>
<text text-anchor="start" x="723.1732" y="-15.4" font-family="sans-serif" font-size="14.00" fill="#000000"> &#160;Providers</text>
<polygon fill="#fb8072" stroke="transparent" points="795.5,-10 795.5,-30 815.5,-30 815.5,-10 795.5,-10"/>
<text text-anchor="start" x="819.2258" y="-15.4" font-family="sans-serif" font-size="14.00" fill="#000000"> &#160;Exports</text>
<g id="clust1" class="cluster">
<title>cluster_AppModule</title>
<polygon fill="none" stroke="#000000" stroke-dasharray="1,5" points="8,-70 8,-268 1267,-268 1267,-70 8,-70"/>
</g>
<g id="clust2" class="cluster">
<title>cluster_AppModule_declarations</title>
<polygon fill="none" stroke="#000000" points="340,-78 340,-130 1259,-130 1259,-78 340,-78"/>
</g>
<g id="clust11" class="cluster">
<title>cluster_AppModule_bootstrap</title>
<polygon fill="none" stroke="#000000" points="597,-208 597,-260 721,-260 721,-208 597,-208"/>
</g>
<g id="clust12" class="cluster">
<title>cluster_AppModule_providers</title>
<polygon fill="none" stroke="#000000" points="16,-78 16,-130 332,-130 332,-78 16,-78"/>
</g>
<!-- AddLogEntryComponent -->
<g id="node1" class="node">
<title>AddLogEntryComponent</title>
<polygon fill="#ffffb3" stroke="#000000" points="1250.5954,-122 1091.4046,-122 1091.4046,-86 1250.5954,-86 1250.5954,-122"/>
<text text-anchor="middle" x="1171" y="-99.8" font-family="Times,serif" font-size="14.00" fill="#000000">AddLogEntryComponent</text>
</g>
<!-- AppModule -->
<g id="node7" class="node">
<title>AppModule</title>
<polygon fill="#8dd3c7" stroke="#000000" points="700.6571,-187 697.6571,-191 676.6571,-191 673.6571,-187 617.3429,-187 617.3429,-151 700.6571,-151 700.6571,-187"/>
<text text-anchor="middle" x="659" y="-164.8" font-family="Times,serif" font-size="14.00" fill="#000000">AppModule</text>
</g>
<!-- AddLogEntryComponent&#45;&gt;AppModule -->
<g id="edge1" class="edge">
<title>AddLogEntryComponent&#45;&gt;AppModule</title>
<path fill="none" stroke="#000000" d="M1171,-122.2921C1171,-144.2057 1171,-178 1171,-178 1171,-178 710.8991,-178 710.8991,-178"/>
<polygon fill="#000000" stroke="#000000" points="710.8991,-174.5001 700.8991,-178 710.8991,-181.5001 710.8991,-174.5001"/>
</g>
<!-- AppComponent -->
<g id="node2" class="node">
<title>AppComponent</title>
<polygon fill="#ffffb3" stroke="#000000" points="1073.9399,-122 968.0601,-122 968.0601,-86 1073.9399,-86 1073.9399,-122"/>
<text text-anchor="middle" x="1021" y="-99.8" font-family="Times,serif" font-size="14.00" fill="#000000">AppComponent</text>
</g>
<!-- AppComponent&#45;&gt;AppModule -->
<g id="edge2" class="edge">
<title>AppComponent&#45;&gt;AppModule</title>
<path fill="none" stroke="#000000" d="M1021,-122.1061C1021,-141.3391 1021,-169 1021,-169 1021,-169 710.8796,-169 710.8796,-169"/>
<polygon fill="#000000" stroke="#000000" points="710.8797,-165.5001 700.8796,-169 710.8796,-172.5001 710.8797,-165.5001"/>
</g>
<!-- HomeComponent -->
<g id="node3" class="node">
<title>HomeComponent</title>
<polygon fill="#ffffb3" stroke="#000000" points="950.5451,-122 835.4549,-122 835.4549,-86 950.5451,-86 950.5451,-122"/>
<text text-anchor="middle" x="893" y="-99.8" font-family="Times,serif" font-size="14.00" fill="#000000">HomeComponent</text>
</g>
<!-- HomeComponent&#45;&gt;AppModule -->
<g id="edge3" class="edge">
<title>HomeComponent&#45;&gt;AppModule</title>
<path fill="none" stroke="#000000" d="M893,-122.027C893,-138.3976 893,-160 893,-160 893,-160 710.8345,-160 710.8345,-160"/>
<polygon fill="#000000" stroke="#000000" points="710.8345,-156.5001 700.8345,-160 710.8345,-163.5001 710.8345,-156.5001"/>
</g>
<!-- LogEntriesComponent -->
<g id="node4" class="node">
<title>LogEntriesComponent</title>
<polygon fill="#ffffb3" stroke="#000000" points="816.5393,-122 673.4607,-122 673.4607,-86 816.5393,-86 816.5393,-122"/>
<text text-anchor="middle" x="745" y="-99.8" font-family="Times,serif" font-size="14.00" fill="#000000">LogEntriesComponent</text>
</g>
<!-- LogEntriesComponent&#45;&gt;AppModule -->
<g id="edge4" class="edge">
<title>LogEntriesComponent&#45;&gt;AppModule</title>
<path fill="none" stroke="#000000" d="M687.0295,-122.1061C687.0295,-122.1061 687.0295,-140.991 687.0295,-140.991"/>
<polygon fill="#000000" stroke="#000000" points="683.5295,-140.9909 687.0295,-150.991 690.5295,-140.991 683.5295,-140.9909"/>
</g>
<!-- PageNotFoundComponent -->
<g id="node5" class="node">
<title>PageNotFoundComponent</title>
<polygon fill="#ffffb3" stroke="#000000" points="655.8243,-122 490.1757,-122 490.1757,-86 655.8243,-86 655.8243,-122"/>
<text text-anchor="middle" x="573" y="-99.8" font-family="Times,serif" font-size="14.00" fill="#000000">PageNotFoundComponent</text>
</g>
<!-- PageNotFoundComponent&#45;&gt;AppModule -->
<g id="edge5" class="edge">
<title>PageNotFoundComponent&#45;&gt;AppModule</title>
<path fill="none" stroke="#000000" d="M636.4169,-122.1061C636.4169,-122.1061 636.4169,-140.991 636.4169,-140.991"/>
<polygon fill="#000000" stroke="#000000" points="632.917,-140.9909 636.4169,-150.991 639.917,-140.991 632.917,-140.9909"/>
</g>
<!-- SidebarComponent -->
<g id="node6" class="node">
<title>SidebarComponent</title>
<polygon fill="#ffffb3" stroke="#000000" points="472.0954,-122 347.9046,-122 347.9046,-86 472.0954,-86 472.0954,-122"/>
<text text-anchor="middle" x="410" y="-99.8" font-family="Times,serif" font-size="14.00" fill="#000000">SidebarComponent</text>
</g>
<!-- SidebarComponent&#45;&gt;AppModule -->
<g id="edge6" class="edge">
<title>SidebarComponent&#45;&gt;AppModule</title>
<path fill="none" stroke="#000000" d="M410,-122.027C410,-138.3976 410,-160 410,-160 410,-160 607.323,-160 607.323,-160"/>
<polygon fill="#000000" stroke="#000000" points="607.323,-163.5001 617.323,-160 607.323,-156.5001 607.323,-163.5001"/>
</g>
<!-- AppComponent  -->
<g id="node8" class="node">
<title>AppComponent </title>
<polygon fill="#80b1d3" stroke="#000000" points="713.439,-252 604.561,-252 604.561,-216 713.439,-216 713.439,-252"/>
<text text-anchor="middle" x="659" y="-229.8" font-family="Times,serif" font-size="14.00" fill="#000000">AppComponent </text>
</g>
<!-- AppModule&#45;&gt;AppComponent  -->
<g id="edge7" class="edge">
<title>AppModule&#45;&gt;AppComponent </title>
<path fill="none" stroke="#000000" stroke-dasharray="1,5" d="M659,-187.1061C659,-187.1061 659,-205.991 659,-205.991"/>
<polygon fill="#000000" stroke="#000000" points="655.5001,-205.9909 659,-215.991 662.5001,-205.991 655.5001,-205.9909"/>
</g>
<!-- DataService -->
<g id="node9" class="node">
<title>DataService</title>
<ellipse fill="#fdb462" stroke="#000000" cx="266" cy="-104" rx="58.4415" ry="18"/>
<text text-anchor="middle" x="266" y="-99.8" font-family="Times,serif" font-size="14.00" fill="#000000">DataService</text>
</g>
<!-- DataService&#45;&gt;AppModule -->
<g id="edge8" class="edge">
<title>DataService&#45;&gt;AppModule</title>
<path fill="none" stroke="#000000" d="M266,-122.1061C266,-141.3391 266,-169 266,-169 266,-169 607.3142,-169 607.3142,-169"/>
<polygon fill="#000000" stroke="#000000" points="607.3142,-172.5001 617.3142,-169 607.3141,-165.5001 607.3142,-172.5001"/>
</g>
<!-- LogEntriesService -->
<g id="node10" class="node">
<title>LogEntriesService</title>
<ellipse fill="#fdb462" stroke="#000000" cx="107" cy="-104" rx="82.8013" ry="18"/>
<text text-anchor="middle" x="107" y="-99.8" font-family="Times,serif" font-size="14.00" fill="#000000">LogEntriesService</text>
</g>
<!-- LogEntriesService&#45;&gt;AppModule -->
<g id="edge9" class="edge">
<title>LogEntriesService&#45;&gt;AppModule</title>
<path fill="none" stroke="#000000" d="M107,-122.2921C107,-144.2057 107,-178 107,-178 107,-178 607.0572,-178 607.0572,-178"/>
<polygon fill="#000000" stroke="#000000" points="607.0572,-181.5001 617.0572,-178 607.0572,-174.5001 607.0572,-181.5001"/>
</g>
</g>
</svg>
